<!DOCTYPE svg PUBLIC "-//W3C//DTD SVG 1.1//EN" "http://www.w3.org/Graphics/SVG/1.1/DTD/svg11.dtd">

<!-- Uploaded to: SVG Repo, www.svgrepo.com, Transformed by: SVG Repo Mixer Tools -->
<svg version="1.1" id="_x32_" xmlns="http://www.w3.org/2000/svg" xmlns:xlink="http://www.w3.org/1999/xlink" width="42px" height="42px" viewBox="0 0 512 512" xml:space="preserve" fill="#000000">

<g id="SVGRepo_bgCarrier" stroke-width="0"/>

<g id="SVGRepo_tracerCarrier" stroke-linecap="round" stroke-linejoin="round"/>

<g id="SVGRepo_iconCarrier"> <style type="text/css">  .st0{fill:#915620;}  </style> <g> <path class="st0" d="M405.82,328.693c-6.672,0-29.906,0-63.75,0c-27.203,0-32.422-4.578-32.422-11.906 c0-8.359,13.609-23.016,16.734-28.25c3.156-5.234,23.016-23.016,27.203-49.188c4.188-26.141-27.203-44.984-37.656-27.188 c-6.203,10.563-21.969,41.844-40.797,55.454c-34.938,25.234-63.828,80.172-100.234,80.172v118.422 c29.984,0,97.953,33.328,122.016,38.156c27.266,5.453,62.875,17.5,81.781-8.172c11.656-15.828,29.922-58.453,43.625-102.047 C457.102,360.74,433.086,328.693,405.82,328.693z"/> <rect x="348.351" y="106.396" class="st0" width="7.484" height="61.281"/> <polygon class="st0" points="372.164,187.583 379.664,187.552 379.398,126.286 371.898,126.302 "/> <path class="st0" d="M72.382,378.662v100.469c0,14.734,11.953,26.688,26.703,26.688h31.859c9.813,0,17.797-7.953,17.797-17.781 V351.975H99.085C84.335,351.975,72.382,363.928,72.382,378.662z"/> <path class="st0" d="M354.195,43.067c0.266,0.438,0.594,0.844,0.984,1.219c0.359,0.359,0.797,0.656,1.234,0.906 c0.453,0.219,0.938,0.391,1.391,0.469c0.469,0.063,0.922,0.078,1.328-0.031l8.844-2.016l3.703,6.422 c1.234,2.156,2.781,4.109,4.5,5.859c1.719,1.703,3.609,3.172,5.578,4.313s4.031,1.969,6,2.406c1.984,0.438,3.922,0.469,5.672,0.094 c1.766-0.422,3.172-1.25,4.234-2.391c1.094-1.156,1.797-2.609,2.125-4.297c0.344-1.672,0.313-3.563-0.109-5.594 c-0.422-1.984-1.25-4.125-2.484-6.266l-6.547-11.359c-0.25-0.422-0.594-0.844-0.969-1.203s-0.797-0.672-1.266-0.875 c-0.438-0.25-0.906-0.391-1.359-0.484c-0.453-0.078-0.906-0.078-1.328,0l-31.297,7.188c-0.438,0.109-0.781,0.281-1.047,0.531 s-0.469,0.578-0.578,0.938c-0.094,0.359-0.125,0.766-0.063,1.188s0.234,0.891,0.516,1.328L354.195,43.067z M386.773,39.271 l3.719,6.422c0.578,1.016,0.969,2.031,1.188,2.984c0.188,0.938,0.203,1.844,0.031,2.641c-0.141,0.797-0.484,1.5-1,2.031 c-0.5,0.547-1.188,0.938-2,1.141c-0.844,0.203-1.75,0.172-2.703-0.047c-0.938-0.203-1.906-0.594-2.844-1.156 c-0.906-0.516-1.813-1.234-2.641-2.047c-0.828-0.797-1.531-1.75-2.109-2.75l-3.719-6.422L386.773,39.271z"/> <path class="st0" d="M344.304,87.692c13.781,12.031,30.563,19.203,44.875,19.203c9.609,0,17.453-3.141,22.609-9.094l11.422-13.094 c6.532-7.469,8.063-18.453,4.313-30.922c-3.672-12.25-12.032-24.547-23.532-34.578C390.195,7.192,373.414,0.005,359.101,0.005 c-9.625,0-17.453,3.156-22.625,9.094l-11.391,13.094c-6.516,7.484-8.063,18.469-4.328,30.922 C324.445,65.38,332.789,77.661,344.304,87.692z M344.117,15.755c3.25-3.703,8.406-5.672,14.938-5.672 c11.75,0,26.406,6.422,38.266,16.75c9.469,8.25,16.578,18.266,20.016,28.203c3.375,9.688,2.75,17.875-1.75,23.031 c-3.234,3.703-8.406,5.672-14.938,5.672c-11.75,0-26.422-6.422-38.297-16.766c-9.453-8.234-16.563-18.234-20-28.188 C339.007,29.099,339.617,20.911,344.117,15.755z"/> </g> </g>

</svg>